<svg width="139" height="52" viewBox="0 0 139 52" fill="none" xmlns="http://www.w3.org/2000/svg">
<path d="M39.36 40C38.96 40 38.76 39.8533 38.76 39.56C38.76 39.32 38.9333 39.16 39.28 39.08L40.2 38.92C40.76 38.8133 41.12 38.6667 41.28 38.48C41.4667 38.2933 41.56 37.92 41.56 37.36V13.84C41.56 13.28 41.4667 12.9067 41.28 12.72C41.12 12.5333 40.76 12.3867 40.2 12.28L39.28 12.12C38.9333 12.04 38.76 11.88 38.76 11.64C38.76 11.3467 38.96 11.2 39.36 11.2H47.72C49.2933 11.2 50.68 11.5467 51.88 12.24C53.08 12.9067 54.0133 13.84 54.68 15.04C55.3467 16.24 55.68 17.6267 55.68 19.2C55.68 20.72 55.3467 22.0667 54.68 23.24C54.0133 24.4133 53.0933 25.3333 51.92 26C50.7467 26.64 49.3867 26.96 47.84 26.96H44.96C44.5867 26.96 44.4 27.1467 44.4 27.52V37.2C44.4 37.76 44.5067 38.1467 44.72 38.36C44.9333 38.5467 45.4133 38.7067 46.16 38.84L47.64 39.08C47.9333 39.1333 48.08 39.28 48.08 39.52C48.08 39.84 47.88 40 47.48 40H39.36ZM44.4 23.76C44.4 25.2267 45.2933 25.96 47.08 25.96C48.8133 25.96 50.1733 25.3467 51.16 24.12C52.1733 22.8933 52.68 21.2133 52.68 19.08C52.68 16.8933 52.1733 15.2 51.16 14C50.1467 12.8 48.7067 12.2 46.84 12.2C45.2133 12.2 44.4 12.7333 44.4 13.8V23.76ZM57.9928 40C57.5928 40 57.3928 39.8533 57.3928 39.56C57.3928 39.32 57.5661 39.16 57.9128 39.08L58.8328 38.92C59.3928 38.8133 59.7528 38.6667 59.9128 38.48C60.0995 38.2933 60.1928 37.92 60.1928 37.36V13.84C60.1928 13.28 60.0995 12.9067 59.9128 12.72C59.7528 12.5333 59.3928 12.3867 58.8328 12.28L57.9128 12.12C57.5661 12.04 57.3928 11.88 57.3928 11.64C57.3928 11.3467 57.5928 11.2 57.9928 11.2H65.3128C65.7128 11.2 65.9128 11.36 65.9128 11.68C65.9128 11.92 65.7661 12.0667 65.4728 12.12L64.3928 12.28C63.8328 12.36 63.4595 12.5067 63.2728 12.72C63.1128 12.9333 63.0328 13.32 63.0328 13.88V36.28C63.0328 37.24 63.2995 37.9333 63.8328 38.36C64.3928 38.7867 65.0861 39 65.9128 39C66.5261 39 67.1528 38.88 67.7928 38.64C68.4595 38.3733 69.0595 37.8933 69.5928 37.2C70.1261 36.48 70.5261 35.44 70.7928 34.08L71.3128 31.4C71.3928 31.0533 71.5928 30.88 71.9128 30.88C72.2861 30.88 72.4461 31.1067 72.3928 31.56L71.9128 39.08C71.8595 39.6933 71.5261 40 70.9128 40H57.9928ZM73.0362 40C72.6362 40 72.4362 39.8667 72.4362 39.6C72.4362 39.3333 72.6229 39.16 72.9962 39.08L73.5963 38.96C74.1296 38.8533 74.5296 38.6 74.7963 38.2C75.0629 37.7733 75.2896 37.1867 75.4763 36.44L81.6763 11.44C81.7296 11.1733 81.8096 11 81.9163 10.92C82.0496 10.84 82.1696 10.8 82.2763 10.8C82.4096 10.8 82.5296 10.84 82.6363 10.92C82.7696 11 82.8629 11.1733 82.9163 11.44L89.2363 36.8C89.4229 37.5467 89.6363 38.0667 89.8763 38.36C90.1163 38.6533 90.4896 38.8533 90.9963 38.96L91.5963 39.08C91.9696 39.16 92.1563 39.3333 92.1563 39.6C92.1563 39.8667 91.9563 40 91.5563 40H84.7163C84.3429 40 84.1563 39.8533 84.1563 39.56C84.1563 39.2667 84.3829 39.1067 84.8363 39.08L85.5963 39C86.0496 38.9467 86.3296 38.8 86.4363 38.56C86.5696 38.32 86.5696 37.9067 86.4363 37.32L84.9162 31.12C84.7563 30.4267 84.3163 30.08 83.5963 30.08H79.3963C78.7029 30.08 78.2629 30.4267 78.0763 31.12L76.7163 36.48C76.3163 38 76.7163 38.84 77.9163 39L78.5163 39.08C78.9696 39.16 79.1963 39.32 79.1963 39.56C79.1963 39.8533 79.0096 40 78.6363 40H73.0362ZM79.2763 28.88H83.6763C84.1029 28.88 84.2763 28.6533 84.1963 28.2L81.6363 17.48H81.4363L78.7563 28.2C78.6763 28.6533 78.8496 28.88 79.2763 28.88ZM108.207 40.36C107.78 40.36 107.42 40.04 107.127 39.4L96.2869 15.88C96.2069 15.6933 96.1002 15.6133 95.9669 15.64C95.8602 15.6667 95.8069 15.7867 95.8069 16V36.56C95.8069 37.3067 95.9269 37.88 96.1669 38.28C96.4335 38.6533 96.9002 38.8933 97.5669 39L98.0869 39.08C98.4335 39.1067 98.6069 39.2667 98.6069 39.56C98.6069 39.8533 98.4069 40 98.0069 40H92.2869C91.8869 40 91.6869 39.8533 91.6869 39.56C91.6869 39.2667 91.8602 39.1067 92.2069 39.08L92.7269 39C93.4202 38.8933 93.9002 38.6533 94.1669 38.28C94.4335 37.88 94.5669 37.3067 94.5669 36.56V13.84C94.5669 13.28 94.4735 12.9067 94.2869 12.72C94.1269 12.5333 93.7402 12.3867 93.1269 12.28L92.2069 12.12C91.8602 12.04 91.6869 11.88 91.6869 11.64C91.6869 11.3467 91.8869 11.2 92.2869 11.2H96.5669C97.2335 11.2 97.7002 11.4933 97.9669 12.08L107.407 32.84C107.487 33 107.58 33.0667 107.687 33.04C107.82 33.0133 107.887 32.92 107.887 32.76V14.64C107.887 13.7867 107.74 13.2 107.447 12.88C107.154 12.5333 106.78 12.32 106.327 12.24L105.607 12.12C105.26 12.04 105.087 11.88 105.087 11.64C105.087 11.3467 105.287 11.2 105.687 11.2H111.407C111.807 11.2 112.007 11.3467 112.007 11.64C112.007 11.9333 111.834 12.0933 111.487 12.12L110.967 12.2C110.274 12.3067 109.794 12.5333 109.527 12.88C109.26 13.2 109.127 13.7867 109.127 14.64V39.08C109.127 39.56 109.034 39.8933 108.847 40.08C108.687 40.2667 108.474 40.36 108.207 40.36ZM119.325 40C118.925 40 118.725 39.8667 118.725 39.6C118.725 39.3333 118.912 39.16 119.285 39.08L119.885 38.96C120.419 38.8533 120.819 38.6 121.085 38.2C121.352 37.7733 121.579 37.1867 121.765 36.44L127.965 11.44C128.019 11.1733 128.099 11 128.205 10.92C128.339 10.84 128.459 10.8 128.565 10.8C128.699 10.8 128.819 10.84 128.925 10.92C129.059 11 129.152 11.1733 129.205 11.44L135.525 36.8C135.712 37.5467 135.925 38.0667 136.165 38.36C136.405 38.6533 136.779 38.8533 137.285 38.96L137.885 39.08C138.259 39.16 138.445 39.3333 138.445 39.6C138.445 39.8667 138.245 40 137.845 40H131.005C130.632 40 130.445 39.8533 130.445 39.56C130.445 39.2667 130.672 39.1067 131.125 39.08L131.885 39C132.339 38.9467 132.619 38.8 132.725 38.56C132.859 38.32 132.859 37.9067 132.725 37.32L131.205 31.12C131.045 30.4267 130.605 30.08 129.885 30.08H125.685C124.992 30.08 124.552 30.4267 124.365 31.12L123.005 36.48C122.605 38 123.005 38.84 124.205 39L124.805 39.08C125.259 39.16 125.485 39.32 125.485 39.56C125.485 39.8533 125.299 40 124.925 40H119.325ZM125.565 28.88H129.965C130.392 28.88 130.565 28.6533 130.485 28.2L127.925 17.48H127.725L125.045 28.2C124.965 28.6533 125.139 28.88 125.565 28.88Z" fill="black"/>
<path d="M1 22.5082L13.609 9.82814C17.3587 6.05729 23.4383 6.05729 27.188 9.82814C30.9377 13.599 30.9372 19.7131 27.1875 23.4839L12.6387 38.1148C10.1389 40.6287 6.08659 40.6283 3.58679 38.1144C1.08699 35.6005 1.08637 31.5251 3.58618 29.0112L18.135 14.3804C19.3849 13.1234 21.4125 13.1234 22.6624 14.3804C23.9123 15.6373 23.9114 17.6747 22.6615 18.9317L10.0525 31.6117" stroke="black" stroke-width="2" stroke-linecap="round" stroke-linejoin="round"/>
</svg>
